<mxfile host="Electron" modified="2024-04-18T13:33:40.258Z" agent="Mozilla/5.0 (Macintosh; Intel Mac OS X 10_15_7) AppleWebKit/537.36 (KHTML, like Gecko) draw.io/24.2.5 Chrome/120.0.6099.109 Electron/28.1.0 Safari/537.36" etag="74_0Rr53Mo8DrGzklLPL" version="24.2.5" type="device">
  <diagram name="Risk-Matrix" id="cqQAGL0XJoxaUiZtySAY">
    <mxGraphModel dx="1234" dy="1165" grid="1" gridSize="10" guides="1" tooltips="1" connect="1" arrows="1" fold="1" page="1" pageScale="1" pageWidth="1169" pageHeight="827" math="0" shadow="0">
      <root>
        <mxCell id="0" />
        <mxCell id="1" parent="0" />
        <mxCell id="0-oAsQLT7A-WS8X7rOEl-68" value="Impact" style="shape=table;childLayout=tableLayout;startSize=40;collapsible=0;recursiveResize=0;expand=0;" vertex="1" parent="1">
          <mxGeometry x="280" y="40" width="640" height="640" as="geometry" />
        </mxCell>
        <mxCell id="0-oAsQLT7A-WS8X7rOEl-69" value="Very Likely" style="shape=tableRow;horizontal=0;swimlaneHead=0;swimlaneBody=0;top=0;left=0;strokeColor=inherit;bottom=0;right=0;dropTarget=0;fontStyle=0;fillColor=none;points=[[0,0.5],[1,0.5]];portConstraint=eastwest;startSize=40;collapsible=0;recursiveResize=0;expand=0;" vertex="1" parent="0-oAsQLT7A-WS8X7rOEl-68">
          <mxGeometry y="40" width="640" height="120" as="geometry" />
        </mxCell>
        <mxCell id="0-oAsQLT7A-WS8X7rOEl-70" value="Insignificant    " style="swimlane;swimlaneHead=0;swimlaneBody=0;fontStyle=0;strokeColor=inherit;connectable=0;fillColor=none;startSize=40;collapsible=0;recursiveResize=0;expand=0;" vertex="1" parent="0-oAsQLT7A-WS8X7rOEl-69">
          <mxGeometry x="40" width="120" height="120" as="geometry">
            <mxRectangle width="120" height="120" as="alternateBounds" />
          </mxGeometry>
        </mxCell>
        <mxCell id="0-oAsQLT7A-WS8X7rOEl-100" value="Medium-Low&lt;div&gt;5&lt;/div&gt;" style="rounded=0;whiteSpace=wrap;html=1;fillColor=#d5e8d4;strokeColor=#000000;" vertex="1" parent="0-oAsQLT7A-WS8X7rOEl-70">
          <mxGeometry y="40" width="120" height="80" as="geometry" />
        </mxCell>
        <mxCell id="0-oAsQLT7A-WS8X7rOEl-71" value="Minor" style="swimlane;swimlaneHead=0;swimlaneBody=0;fontStyle=0;strokeColor=inherit;connectable=0;fillColor=none;startSize=40;collapsible=0;recursiveResize=0;expand=0;" vertex="1" parent="0-oAsQLT7A-WS8X7rOEl-69">
          <mxGeometry x="160" width="120" height="120" as="geometry">
            <mxRectangle width="120" height="120" as="alternateBounds" />
          </mxGeometry>
        </mxCell>
        <mxCell id="0-oAsQLT7A-WS8X7rOEl-133" value="Medium&lt;div&gt;10&lt;span style=&quot;white-space: pre;&quot;&gt;&#x9;&lt;/span&gt;&lt;/div&gt;" style="rounded=0;whiteSpace=wrap;html=1;fillColor=#fff2cc;strokeColor=#000000;" vertex="1" parent="0-oAsQLT7A-WS8X7rOEl-71">
          <mxGeometry y="40" width="120" height="80" as="geometry" />
        </mxCell>
        <mxCell id="0-oAsQLT7A-WS8X7rOEl-72" value="Moderate" style="swimlane;swimlaneHead=0;swimlaneBody=0;fontStyle=0;strokeColor=inherit;connectable=0;fillColor=none;startSize=40;collapsible=0;recursiveResize=0;expand=0;" vertex="1" parent="0-oAsQLT7A-WS8X7rOEl-69">
          <mxGeometry x="280" width="120" height="120" as="geometry">
            <mxRectangle width="120" height="120" as="alternateBounds" />
          </mxGeometry>
        </mxCell>
        <mxCell id="0-oAsQLT7A-WS8X7rOEl-134" value="Medium-High&lt;div&gt;15&lt;/div&gt;" style="rounded=0;whiteSpace=wrap;html=1;fillColor=#f8cecc;strokeColor=#000000;" vertex="1" parent="0-oAsQLT7A-WS8X7rOEl-72">
          <mxGeometry y="40" width="120" height="80" as="geometry" />
        </mxCell>
        <mxCell id="0-oAsQLT7A-WS8X7rOEl-73" value="Major" style="swimlane;swimlaneHead=0;swimlaneBody=0;fontStyle=0;strokeColor=inherit;connectable=0;fillColor=none;startSize=40;collapsible=0;recursiveResize=0;expand=0;" vertex="1" parent="0-oAsQLT7A-WS8X7rOEl-69">
          <mxGeometry x="400" width="120" height="120" as="geometry">
            <mxRectangle width="120" height="120" as="alternateBounds" />
          </mxGeometry>
        </mxCell>
        <mxCell id="0-oAsQLT7A-WS8X7rOEl-135" value="High&lt;div&gt;20&lt;/div&gt;" style="rounded=0;whiteSpace=wrap;html=1;fillColor=#f8cecc;strokeColor=#000000;" vertex="1" parent="0-oAsQLT7A-WS8X7rOEl-73">
          <mxGeometry y="40" width="120" height="80" as="geometry" />
        </mxCell>
        <mxCell id="0-oAsQLT7A-WS8X7rOEl-74" value="Catastrophic" style="swimlane;swimlaneHead=0;swimlaneBody=0;fontStyle=0;strokeColor=inherit;connectable=0;fillColor=none;startSize=40;collapsible=0;recursiveResize=0;expand=0;" vertex="1" parent="0-oAsQLT7A-WS8X7rOEl-69">
          <mxGeometry x="520" width="120" height="120" as="geometry">
            <mxRectangle width="120" height="120" as="alternateBounds" />
          </mxGeometry>
        </mxCell>
        <mxCell id="0-oAsQLT7A-WS8X7rOEl-136" value="High&lt;div&gt;25&lt;/div&gt;" style="rounded=0;whiteSpace=wrap;html=1;fillColor=#f8cecc;strokeColor=#000000;" vertex="1" parent="0-oAsQLT7A-WS8X7rOEl-74">
          <mxGeometry y="40" width="120" height="80" as="geometry" />
        </mxCell>
        <mxCell id="0-oAsQLT7A-WS8X7rOEl-75" value="Likely" style="shape=tableRow;horizontal=0;swimlaneHead=0;swimlaneBody=0;top=0;left=0;strokeColor=inherit;bottom=0;right=0;dropTarget=0;fontStyle=0;fillColor=none;points=[[0,0.5],[1,0.5]];portConstraint=eastwest;startSize=40;collapsible=0;recursiveResize=0;expand=0;" vertex="1" parent="0-oAsQLT7A-WS8X7rOEl-68">
          <mxGeometry y="160" width="640" height="120" as="geometry" />
        </mxCell>
        <mxCell id="0-oAsQLT7A-WS8X7rOEl-76" value="" style="swimlane;swimlaneHead=0;swimlaneBody=0;fontStyle=0;connectable=0;startSize=0;collapsible=0;recursiveResize=0;expand=0;fillColor=#f8cecc;strokeColor=#b85450;" vertex="1" parent="0-oAsQLT7A-WS8X7rOEl-75">
          <mxGeometry x="40" width="120" height="120" as="geometry">
            <mxRectangle width="120" height="120" as="alternateBounds" />
          </mxGeometry>
        </mxCell>
        <mxCell id="0-oAsQLT7A-WS8X7rOEl-137" value="" style="swimlane;swimlaneHead=0;swimlaneBody=0;fontStyle=0;strokeColor=inherit;connectable=0;fillColor=none;startSize=40;collapsible=0;recursiveResize=0;expand=0;" vertex="1" parent="0-oAsQLT7A-WS8X7rOEl-76">
          <mxGeometry y="-40" width="120" height="120" as="geometry">
            <mxRectangle width="120" height="120" as="alternateBounds" />
          </mxGeometry>
        </mxCell>
        <mxCell id="0-oAsQLT7A-WS8X7rOEl-138" value="Medium-Low&lt;div&gt;4&lt;/div&gt;" style="rounded=0;whiteSpace=wrap;html=1;fillColor=#d5e8d4;strokeColor=#000000;" vertex="1" parent="0-oAsQLT7A-WS8X7rOEl-137">
          <mxGeometry y="40" width="120" height="120" as="geometry" />
        </mxCell>
        <mxCell id="0-oAsQLT7A-WS8X7rOEl-77" value="" style="swimlane;swimlaneHead=0;swimlaneBody=0;fontStyle=0;connectable=0;strokeColor=inherit;fillColor=none;startSize=0;collapsible=0;recursiveResize=0;expand=0;" vertex="1" parent="0-oAsQLT7A-WS8X7rOEl-75">
          <mxGeometry x="160" width="120" height="120" as="geometry">
            <mxRectangle width="120" height="120" as="alternateBounds" />
          </mxGeometry>
        </mxCell>
        <mxCell id="0-oAsQLT7A-WS8X7rOEl-282" value="Medium-Low&lt;div&gt;8&lt;/div&gt;" style="rounded=0;whiteSpace=wrap;html=1;fillColor=#d5e8d4;strokeColor=#000000;" vertex="1" parent="0-oAsQLT7A-WS8X7rOEl-77">
          <mxGeometry width="120" height="120" as="geometry" />
        </mxCell>
        <mxCell id="0-oAsQLT7A-WS8X7rOEl-78" value="" style="swimlane;swimlaneHead=0;swimlaneBody=0;fontStyle=0;connectable=0;strokeColor=inherit;fillColor=none;startSize=0;collapsible=0;recursiveResize=0;expand=0;" vertex="1" parent="0-oAsQLT7A-WS8X7rOEl-75">
          <mxGeometry x="280" width="120" height="120" as="geometry">
            <mxRectangle width="120" height="120" as="alternateBounds" />
          </mxGeometry>
        </mxCell>
        <mxCell id="0-oAsQLT7A-WS8X7rOEl-285" value="Medium&lt;div&gt;12&lt;/div&gt;" style="rounded=0;whiteSpace=wrap;html=1;fillColor=#fff2cc;strokeColor=#000000;" vertex="1" parent="0-oAsQLT7A-WS8X7rOEl-78">
          <mxGeometry width="120" height="120" as="geometry" />
        </mxCell>
        <mxCell id="0-oAsQLT7A-WS8X7rOEl-79" value="" style="swimlane;swimlaneHead=0;swimlaneBody=0;fontStyle=0;connectable=0;strokeColor=inherit;fillColor=none;startSize=0;collapsible=0;recursiveResize=0;expand=0;" vertex="1" parent="0-oAsQLT7A-WS8X7rOEl-75">
          <mxGeometry x="400" width="120" height="120" as="geometry">
            <mxRectangle width="120" height="120" as="alternateBounds" />
          </mxGeometry>
        </mxCell>
        <mxCell id="0-oAsQLT7A-WS8X7rOEl-286" value="Medium-High&lt;div&gt;16&lt;/div&gt;" style="rounded=0;whiteSpace=wrap;html=1;fillColor=#f8cecc;strokeColor=#000000;" vertex="1" parent="0-oAsQLT7A-WS8X7rOEl-79">
          <mxGeometry width="120" height="120" as="geometry" />
        </mxCell>
        <mxCell id="0-oAsQLT7A-WS8X7rOEl-80" value="" style="swimlane;swimlaneHead=0;swimlaneBody=0;fontStyle=0;connectable=0;strokeColor=inherit;fillColor=none;startSize=0;collapsible=0;recursiveResize=0;expand=0;" vertex="1" parent="0-oAsQLT7A-WS8X7rOEl-75">
          <mxGeometry x="520" width="120" height="120" as="geometry">
            <mxRectangle width="120" height="120" as="alternateBounds" />
          </mxGeometry>
        </mxCell>
        <mxCell id="0-oAsQLT7A-WS8X7rOEl-289" value="High&lt;div&gt;20&lt;/div&gt;" style="rounded=0;whiteSpace=wrap;html=1;fillColor=#f8cecc;strokeColor=#000000;" vertex="1" parent="0-oAsQLT7A-WS8X7rOEl-80">
          <mxGeometry width="120" height="120" as="geometry" />
        </mxCell>
        <mxCell id="0-oAsQLT7A-WS8X7rOEl-81" value="Possible" style="shape=tableRow;horizontal=0;swimlaneHead=0;swimlaneBody=0;top=0;left=0;strokeColor=inherit;bottom=0;right=0;dropTarget=0;fontStyle=0;fillColor=none;points=[[0,0.5],[1,0.5]];portConstraint=eastwest;startSize=40;collapsible=0;recursiveResize=0;expand=0;" vertex="1" parent="0-oAsQLT7A-WS8X7rOEl-68">
          <mxGeometry y="280" width="640" height="120" as="geometry" />
        </mxCell>
        <mxCell id="0-oAsQLT7A-WS8X7rOEl-82" value="" style="swimlane;swimlaneHead=0;swimlaneBody=0;fontStyle=0;connectable=0;strokeColor=inherit;fillColor=none;startSize=0;collapsible=0;recursiveResize=0;expand=0;" vertex="1" parent="0-oAsQLT7A-WS8X7rOEl-81">
          <mxGeometry x="40" width="120" height="120" as="geometry">
            <mxRectangle width="120" height="120" as="alternateBounds" />
          </mxGeometry>
        </mxCell>
        <mxCell id="0-oAsQLT7A-WS8X7rOEl-139" value="Low&lt;div&gt;3&lt;/div&gt;" style="rounded=0;whiteSpace=wrap;html=1;fillColor=#d5e8d4;strokeColor=#000000;" vertex="1" parent="0-oAsQLT7A-WS8X7rOEl-82">
          <mxGeometry width="120" height="120" as="geometry" />
        </mxCell>
        <mxCell id="0-oAsQLT7A-WS8X7rOEl-83" value="" style="swimlane;swimlaneHead=0;swimlaneBody=0;fontStyle=0;connectable=0;strokeColor=inherit;fillColor=none;startSize=0;collapsible=0;recursiveResize=0;expand=0;" vertex="1" parent="0-oAsQLT7A-WS8X7rOEl-81">
          <mxGeometry x="160" width="120" height="120" as="geometry">
            <mxRectangle width="120" height="120" as="alternateBounds" />
          </mxGeometry>
        </mxCell>
        <mxCell id="0-oAsQLT7A-WS8X7rOEl-283" value="Medium-Low&lt;div&gt;6&lt;/div&gt;" style="rounded=0;whiteSpace=wrap;html=1;fillColor=#d5e8d4;strokeColor=#000000;" vertex="1" parent="0-oAsQLT7A-WS8X7rOEl-83">
          <mxGeometry width="120" height="120" as="geometry" />
        </mxCell>
        <mxCell id="0-oAsQLT7A-WS8X7rOEl-84" value="" style="swimlane;swimlaneHead=0;swimlaneBody=0;fontStyle=0;connectable=0;strokeColor=inherit;fillColor=none;startSize=0;collapsible=0;recursiveResize=0;expand=0;" vertex="1" parent="0-oAsQLT7A-WS8X7rOEl-81">
          <mxGeometry x="280" width="120" height="120" as="geometry">
            <mxRectangle width="120" height="120" as="alternateBounds" />
          </mxGeometry>
        </mxCell>
        <mxCell id="0-oAsQLT7A-WS8X7rOEl-284" value="Medium&lt;div&gt;9&lt;/div&gt;" style="rounded=0;whiteSpace=wrap;html=1;fillColor=#fff2cc;strokeColor=#000000;" vertex="1" parent="0-oAsQLT7A-WS8X7rOEl-84">
          <mxGeometry width="120" height="120" as="geometry" />
        </mxCell>
        <mxCell id="0-oAsQLT7A-WS8X7rOEl-85" value="" style="swimlane;swimlaneHead=0;swimlaneBody=0;fontStyle=0;connectable=0;strokeColor=inherit;fillColor=none;startSize=0;collapsible=0;recursiveResize=0;expand=0;" vertex="1" parent="0-oAsQLT7A-WS8X7rOEl-81">
          <mxGeometry x="400" width="120" height="120" as="geometry">
            <mxRectangle width="120" height="120" as="alternateBounds" />
          </mxGeometry>
        </mxCell>
        <mxCell id="0-oAsQLT7A-WS8X7rOEl-287" value="Medium-High&lt;div&gt;12&lt;/div&gt;" style="rounded=0;whiteSpace=wrap;html=1;fillColor=#f8cecc;strokeColor=#000000;" vertex="1" parent="0-oAsQLT7A-WS8X7rOEl-85">
          <mxGeometry width="120" height="120" as="geometry" />
        </mxCell>
        <mxCell id="0-oAsQLT7A-WS8X7rOEl-86" value="" style="swimlane;swimlaneHead=0;swimlaneBody=0;fontStyle=0;connectable=0;strokeColor=inherit;fillColor=none;startSize=0;collapsible=0;recursiveResize=0;expand=0;" vertex="1" parent="0-oAsQLT7A-WS8X7rOEl-81">
          <mxGeometry x="520" width="120" height="120" as="geometry">
            <mxRectangle width="120" height="120" as="alternateBounds" />
          </mxGeometry>
        </mxCell>
        <mxCell id="0-oAsQLT7A-WS8X7rOEl-288" value="Medium-High&lt;div&gt;15&lt;/div&gt;" style="rounded=0;whiteSpace=wrap;html=1;fillColor=#f8cecc;strokeColor=#000000;" vertex="1" parent="0-oAsQLT7A-WS8X7rOEl-86">
          <mxGeometry width="120" height="120" as="geometry" />
        </mxCell>
        <mxCell id="0-oAsQLT7A-WS8X7rOEl-87" value="Unlikely" style="shape=tableRow;horizontal=0;swimlaneHead=0;swimlaneBody=0;top=0;left=0;strokeColor=inherit;bottom=0;right=0;dropTarget=0;fontStyle=0;fillColor=none;points=[[0,0.5],[1,0.5]];portConstraint=eastwest;startSize=40;collapsible=0;recursiveResize=0;expand=0;" vertex="1" parent="0-oAsQLT7A-WS8X7rOEl-68">
          <mxGeometry y="400" width="640" height="120" as="geometry" />
        </mxCell>
        <mxCell id="0-oAsQLT7A-WS8X7rOEl-88" value="" style="swimlane;swimlaneHead=0;swimlaneBody=0;fontStyle=0;connectable=0;strokeColor=inherit;fillColor=none;startSize=0;collapsible=0;recursiveResize=0;expand=0;" vertex="1" parent="0-oAsQLT7A-WS8X7rOEl-87">
          <mxGeometry x="40" width="120" height="120" as="geometry">
            <mxRectangle width="120" height="120" as="alternateBounds" />
          </mxGeometry>
        </mxCell>
        <mxCell id="0-oAsQLT7A-WS8X7rOEl-281" value="Low&lt;div&gt;2&lt;/div&gt;" style="rounded=0;whiteSpace=wrap;html=1;fillColor=#d5e8d4;strokeColor=#000000;" vertex="1" parent="0-oAsQLT7A-WS8X7rOEl-88">
          <mxGeometry width="120" height="120" as="geometry" />
        </mxCell>
        <mxCell id="0-oAsQLT7A-WS8X7rOEl-89" value="" style="swimlane;swimlaneHead=0;swimlaneBody=0;fontStyle=0;connectable=0;strokeColor=inherit;fillColor=none;startSize=0;collapsible=0;recursiveResize=0;expand=0;" vertex="1" parent="0-oAsQLT7A-WS8X7rOEl-87">
          <mxGeometry x="160" width="120" height="120" as="geometry">
            <mxRectangle width="120" height="120" as="alternateBounds" />
          </mxGeometry>
        </mxCell>
        <mxCell id="0-oAsQLT7A-WS8X7rOEl-280" value="Medium-Low&lt;div&gt;4&lt;/div&gt;" style="rounded=0;whiteSpace=wrap;html=1;fillColor=#d5e8d4;strokeColor=#000000;" vertex="1" parent="0-oAsQLT7A-WS8X7rOEl-89">
          <mxGeometry width="120" height="120" as="geometry" />
        </mxCell>
        <mxCell id="0-oAsQLT7A-WS8X7rOEl-90" value="" style="swimlane;swimlaneHead=0;swimlaneBody=0;fontStyle=0;connectable=0;strokeColor=inherit;fillColor=none;startSize=0;collapsible=0;recursiveResize=0;expand=0;" vertex="1" parent="0-oAsQLT7A-WS8X7rOEl-87">
          <mxGeometry x="280" width="120" height="120" as="geometry">
            <mxRectangle width="120" height="120" as="alternateBounds" />
          </mxGeometry>
        </mxCell>
        <mxCell id="0-oAsQLT7A-WS8X7rOEl-231" value="Medium-Low&lt;div&gt;6&lt;/div&gt;" style="rounded=0;whiteSpace=wrap;html=1;fillColor=#d5e8d4;strokeColor=#000000;" vertex="1" parent="0-oAsQLT7A-WS8X7rOEl-90">
          <mxGeometry width="120" height="120" as="geometry" />
        </mxCell>
        <mxCell id="0-oAsQLT7A-WS8X7rOEl-232" value="Medium&lt;div&gt;8&lt;/div&gt;" style="rounded=0;whiteSpace=wrap;html=1;fillColor=#fff2cc;strokeColor=#000000;" vertex="1" parent="0-oAsQLT7A-WS8X7rOEl-90">
          <mxGeometry x="120" width="120" height="120" as="geometry" />
        </mxCell>
        <mxCell id="0-oAsQLT7A-WS8X7rOEl-91" value="" style="swimlane;swimlaneHead=0;swimlaneBody=0;fontStyle=0;connectable=0;strokeColor=inherit;fillColor=none;startSize=0;collapsible=0;recursiveResize=0;expand=0;" vertex="1" parent="0-oAsQLT7A-WS8X7rOEl-87">
          <mxGeometry x="400" width="120" height="120" as="geometry">
            <mxRectangle width="120" height="120" as="alternateBounds" />
          </mxGeometry>
        </mxCell>
        <mxCell id="0-oAsQLT7A-WS8X7rOEl-92" value="" style="swimlane;swimlaneHead=0;swimlaneBody=0;fontStyle=0;connectable=0;strokeColor=inherit;fillColor=none;startSize=0;collapsible=0;recursiveResize=0;expand=0;" vertex="1" parent="0-oAsQLT7A-WS8X7rOEl-87">
          <mxGeometry x="520" width="120" height="120" as="geometry">
            <mxRectangle width="120" height="120" as="alternateBounds" />
          </mxGeometry>
        </mxCell>
        <mxCell id="0-oAsQLT7A-WS8X7rOEl-290" value="Medium-High&lt;div&gt;10&lt;/div&gt;" style="rounded=0;whiteSpace=wrap;html=1;fillColor=#f8cecc;strokeColor=#000000;" vertex="1" parent="0-oAsQLT7A-WS8X7rOEl-92">
          <mxGeometry width="120" height="120" as="geometry" />
        </mxCell>
        <mxCell id="0-oAsQLT7A-WS8X7rOEl-93" value="Very Unlikely" style="shape=tableRow;horizontal=0;swimlaneHead=0;swimlaneBody=0;top=0;left=0;strokeColor=inherit;bottom=0;right=0;dropTarget=0;fontStyle=0;fillColor=none;points=[[0,0.5],[1,0.5]];portConstraint=eastwest;startSize=40;collapsible=0;recursiveResize=0;expand=0;" vertex="1" parent="0-oAsQLT7A-WS8X7rOEl-68">
          <mxGeometry y="520" width="640" height="120" as="geometry" />
        </mxCell>
        <mxCell id="0-oAsQLT7A-WS8X7rOEl-94" value="" style="swimlane;swimlaneHead=0;swimlaneBody=0;fontStyle=0;connectable=0;strokeColor=inherit;fillColor=none;startSize=0;collapsible=0;recursiveResize=0;expand=0;" vertex="1" parent="0-oAsQLT7A-WS8X7rOEl-93">
          <mxGeometry x="40" width="120" height="120" as="geometry">
            <mxRectangle width="120" height="120" as="alternateBounds" />
          </mxGeometry>
        </mxCell>
        <mxCell id="0-oAsQLT7A-WS8X7rOEl-220" value="Low&lt;div&gt;1&lt;/div&gt;" style="rounded=0;whiteSpace=wrap;html=1;fillColor=#d5e8d4;strokeColor=#000000;" vertex="1" parent="0-oAsQLT7A-WS8X7rOEl-94">
          <mxGeometry width="120" height="120" as="geometry" />
        </mxCell>
        <mxCell id="0-oAsQLT7A-WS8X7rOEl-95" value="" style="swimlane;swimlaneHead=0;swimlaneBody=0;fontStyle=0;connectable=0;strokeColor=inherit;fillColor=none;startSize=0;collapsible=0;recursiveResize=0;expand=0;" vertex="1" parent="0-oAsQLT7A-WS8X7rOEl-93">
          <mxGeometry x="160" width="120" height="120" as="geometry">
            <mxRectangle width="120" height="120" as="alternateBounds" />
          </mxGeometry>
        </mxCell>
        <mxCell id="0-oAsQLT7A-WS8X7rOEl-221" value="" style="swimlane;swimlaneHead=0;swimlaneBody=0;fontStyle=0;connectable=0;strokeColor=inherit;fillColor=none;startSize=0;collapsible=0;recursiveResize=0;expand=0;" vertex="1" parent="0-oAsQLT7A-WS8X7rOEl-95">
          <mxGeometry width="120" height="120" as="geometry">
            <mxRectangle width="120" height="120" as="alternateBounds" />
          </mxGeometry>
        </mxCell>
        <mxCell id="0-oAsQLT7A-WS8X7rOEl-222" value="Low&lt;div&gt;2&lt;/div&gt;" style="rounded=0;whiteSpace=wrap;html=1;fillColor=#d5e8d4;strokeColor=#000000;" vertex="1" parent="0-oAsQLT7A-WS8X7rOEl-221">
          <mxGeometry width="120" height="120" as="geometry" />
        </mxCell>
        <mxCell id="0-oAsQLT7A-WS8X7rOEl-96" value="" style="swimlane;swimlaneHead=0;swimlaneBody=0;fontStyle=0;connectable=0;strokeColor=inherit;fillColor=none;startSize=0;collapsible=0;recursiveResize=0;expand=0;" vertex="1" parent="0-oAsQLT7A-WS8X7rOEl-93">
          <mxGeometry x="280" width="120" height="120" as="geometry">
            <mxRectangle width="120" height="120" as="alternateBounds" />
          </mxGeometry>
        </mxCell>
        <mxCell id="0-oAsQLT7A-WS8X7rOEl-223" value="Medium-Low&lt;div&gt;3&lt;/div&gt;" style="rounded=0;whiteSpace=wrap;html=1;fillColor=#d5e8d4;strokeColor=#000000;" vertex="1" parent="0-oAsQLT7A-WS8X7rOEl-96">
          <mxGeometry width="120" height="120" as="geometry" />
        </mxCell>
        <mxCell id="0-oAsQLT7A-WS8X7rOEl-97" value="" style="swimlane;swimlaneHead=0;swimlaneBody=0;fontStyle=0;connectable=0;strokeColor=inherit;fillColor=none;startSize=0;collapsible=0;recursiveResize=0;expand=0;" vertex="1" parent="0-oAsQLT7A-WS8X7rOEl-93">
          <mxGeometry x="400" width="120" height="120" as="geometry">
            <mxRectangle width="120" height="120" as="alternateBounds" />
          </mxGeometry>
        </mxCell>
        <mxCell id="0-oAsQLT7A-WS8X7rOEl-224" value="Medium&lt;div&gt;4&lt;/div&gt;" style="rounded=0;whiteSpace=wrap;html=1;fillColor=#fff2cc;strokeColor=#000000;" vertex="1" parent="0-oAsQLT7A-WS8X7rOEl-97">
          <mxGeometry width="120" height="120" as="geometry" />
        </mxCell>
        <mxCell id="0-oAsQLT7A-WS8X7rOEl-98" value="" style="swimlane;swimlaneHead=0;swimlaneBody=0;fontStyle=0;connectable=0;strokeColor=inherit;fillColor=none;startSize=0;collapsible=0;recursiveResize=0;expand=0;" vertex="1" parent="0-oAsQLT7A-WS8X7rOEl-93">
          <mxGeometry x="520" width="120" height="120" as="geometry">
            <mxRectangle width="120" height="120" as="alternateBounds" />
          </mxGeometry>
        </mxCell>
        <mxCell id="0-oAsQLT7A-WS8X7rOEl-225" value="Medium&lt;div&gt;5&lt;/div&gt;" style="rounded=0;whiteSpace=wrap;html=1;fillColor=#fff2cc;strokeColor=#000000;" vertex="1" parent="0-oAsQLT7A-WS8X7rOEl-98">
          <mxGeometry width="120" height="120" as="geometry" />
        </mxCell>
        <mxCell id="0-oAsQLT7A-WS8X7rOEl-291" value="Probability" style="rounded=0;whiteSpace=wrap;html=1;textDirection=vertical-rl;rotation=-180;" vertex="1" parent="1">
          <mxGeometry x="240" y="80" width="40" height="600" as="geometry" />
        </mxCell>
        <mxCell id="0-oAsQLT7A-WS8X7rOEl-297" value="" style="shape=image;verticalLabelPosition=bottom;labelBackgroundColor=default;verticalAlign=top;aspect=fixed;imageAspect=0;image=data:image/jpeg,/9j/4AAQSkZJRgABAQAAAQABAAD/4gHYSUNDX1BST0ZJTEUAAQEAAAHIbGNtcwIQAABtbnRyUkdCIFhZWiAH4gADABQACQAOAB1hY3NwTVNGVAAAAABzYXdzY3RybAAAAAAAAAAAAAAAAAAA9tYAAQAAAADTLWhhbmSdkQA9QICwPUB0LIGepSKOAAAAAAAAAAAAAAAAAAAAAAAAAAAAAAAAAAAAAAAAAAlkZXNjAAAA8AAAAF9jcHJ0AAABDAAAAAx3dHB0AAABGAAAABRyWFlaAAABLAAAABRnWFlaAAABQAAAABRiWFlaAAABVAAAABRyVFJDAAABaAAAAGBnVFJDAAABaAAAAGBiVFJDAAABaAAAAGBkZXNjAAAAAAAAAAV1UkdCAAAAAAAAAAAAAAAAdGV4dAAAAABDQzAAWFlaIAAAAAAAAPNUAAEAAAABFslYWVogAAAAAAAAb6AAADjyAAADj1hZWiAAAAAAAABilgAAt4kAABjaWFlaIAAAAAAAACSgAAAPhQAAtsRjdXJ2AAAAAAAAACoAAAB8APgBnAJ1A4MEyQZOCBIKGAxiDvQRzxT2GGocLiBDJKwpai5+M+s5sz/WRldNNlR2XBdkHWyGdVZ+jYgskjacq6eMstu+mcrH12Xkd/H5////2wBDAAkGBwgHBgkICAgKCgkLDhcPDg0NDhwUFREXIh4jIyEeICAlKjUtJScyKCAgLj8vMjc5PDw8JC1CRkE6RjU7PDn/2wBDAQoKCg4MDhsPDxs5JiAmOTk5OTk5OTk5OTk5OTk5OTk5OTk5OTk5OTk5OTk5OTk5OTk5OTk5OTk5OTk5OTk5OTn/wAARCAFUAVQDASIAAhEBAxEB/8QAHwAAAQUBAQEBAQEAAAAAAAAAAAECAwQFBgcICQoL/8QAtRAAAgEDAwIEAwUFBAQAAAF9AQIDAAQRBRIhMUEGE1FhByJxFDKBkaEII0KxwRVS0fAkM2JyggkKFhcYGRolJicoKSo0NTY3ODk6Q0RFRkdISUpTVFVWV1hZWmNkZWZnaGlqc3R1dnd4eXqDhIWGh4iJipKTlJWWl5iZmqKjpKWmp6ipqrKztLW2t7i5usLDxMXGx8jJytLT1NXW19jZ2uHi4+Tl5ufo6erx8vP09fb3+Pn6/8QAHwEAAwEBAQEBAQEBAQAAAAAAAAECAwQFBgcICQoL/8QAtREAAgECBAQDBAcFBAQAAQJ3AAECAxEEBSExBhJBUQdhcRMiMoEIFEKRobHBCSMzUvAVYnLRChYkNOEl8RcYGRomJygpKjU2Nzg5OkNERUZHSElKU1RVVldYWVpjZGVmZ2hpanN0dXZ3eHl6goOEhYaHiImKkpOUlZaXmJmaoqOkpaanqKmqsrO0tba3uLm6wsPExcbHyMnK0tPU1dbX2Nna4uPk5ebn6Onq8vP09fb3+Pn6/9oADAMBAAIRAxEAPwDh6KKK4T7IKKKKACiiigAooooAKKKKACiiigAooooAKKKKACiiigAooooAKKKKACiiigAooooAKKKKACiiigAooooAKKKKACiiigAooooAKKKKACiiigAooooAKKKKACiiigAooooAKKKKACiiigAooooAKKKKACiiigAooooAKKKKACiiigAooooAKKKKACiiigAooooAKKKKACiiigAooooAKKKKACiiigAooooAKKKKACiiigAooooAKKKKACiiigAooooAKKKKACiiigAooooAKKKKACiiigAooooAKKKKACiiigAooooAKKKKACiiigAooooAKKKKACiiigAooooAKKKKACiiigAooooAKKKKACiiigAooooAKKKKACiiigAooooAKKKKACiiigAooooAKKKKACiiigAooooAKKKKACiiigAooooAKKKKACiiigAooooAKKKKACiiigAooooAKKKKACiiigAooooAKKKKACiiigAooooAKKKKACiiigAooooAKKKKACiiigAooooAKKKKACiiigAooooAKKKKACiiigAooooAKKKKACiiigAooooAKKKKACiiigAooooAKKKKACiiigAooooAKKKKACiiigAooooAKKKKACiiigAooooAKKKKACiiigAooooAKKKKACiiigAooooAKKKKACiiigAooooAKKKKACiiigAooooAKKKKACiiigAooooAKKKKACiiigAooooAKKKKACiiigAooooAKKKKACiiigAooooAKKKKACiiigAooooAKKKKACiiigAooooAKKKKACiiigAooooAKKKKACiiigAooooAKKKKACivorwXbwt4T0gtDGSbWPJKj0ra+zW//PCL/vgVsqN+p5M81UZOPJt5/wDAPluiuz+LaKnjCRUUKPIj4Ax2rjKyas7Hp0qntIKfcKKACSABkntXqvgv4ZRvBHfa+r5cbktASuB/tnrn2/P0pxi5bEV8RChHmmzy+3tp7qTy7eGSZ/7salj+QrQHhrXyMjQ9Tx/16Sf4V9G2dla2EIgtLaK3iHRIkCj9KnrZUfM8uWbO/uxPl+80+9sTi7s7i3PpLEyfzFVq+p5I0lRkkRXRhgqwyCK4jxV8NtL1WN5tMRLC96gKMROfQr2+o/I1MqL6GtHNYydqiseH0VZ1GxudMvZrK8iaK4hba6Ht/wDW96rVkeqmmroKKv8Ah8A69poIyDdRZH/AxX0r9mt/+eEX/fAq4Q5jixeM+rtK17ny3RX1J9mt/wDnhF/3wKPs1v8A88Iv++BV+x8zk/tdfyfj/wAA+W6K+pPs1v8A88Iv++BR9mt/+eEX/fAo9j5h/a6/k/H/AIB8t0V9SfZrf/nhF/3wK8O+LaKnjCRUUKPIj4Ax2qZ0+VXOjC4/28+Tlt8zjKKK+mtKtoDpdmTDHnyE/hH90VMIcxri8X9XSdr3PmWivqT7Nb/88Iv++BR9mt/+eEX/AHwK09j5nF/a6/k/H/gHy3RX1G1pbOpVreFgeoKA1j6n4N8PamhE+lW6sf44V8tvzXGfxpOi+5Uc2i370T50orv/ABj8NrrSInvdLd7yzXl4yP3sY9ePvD6flXAVm4tbnpUq0KseaDuFFFFSaBRRRQAUUUUAFFFFABRRRQAUUUUAFFFFABRRRQB9H+Cv+RR0j/r1j/lW1WL4K/5FHSP+vWP+VbVdsdj5Gr/El6s8L+L3/I5Sf9cI/wCVcVXa/F7/AJHKT/rhH/KuKrln8TPp8J/Bh6I9A+EXh5NS1aTVLlA0FljywRw0p6fkOfqRXtNcb8JbZYPBVtIoGbiWSRvqGK/yUV2VdFNWieBjqrqVpX6aATgZPSsiXxPoEMpik1mwVwcEeevH15rivjNrdxbW9ppNvI0a3CmSfacFlHAX6E5z9BXkVTOrZ2R0YXLvaw55O1z6lgnhuYlmglSWJhlXRgyn6EVJXhfwq1y407xLDY+YxtL0lHjJ4DY+Vh75GPoa90q4S5lc5MVh3h58t7nn3xe8PR3uj/2xCgF1Z4EhA5eMn+hOfpmvF6+oNTtVvtOurRhlZ4njI+oIr5frGqrO562V1XKm4PoaHh7/AJD+mf8AX1F/6GK+ma+ZvD3/ACH9M/6+ov8A0MV9M1VHZnPm3xRCiivmHVv+Qre/9d3/APQjVznynJhMJ9YbV7WPp6ivlais/beR2/2R/f8Aw/4J9U14X8Xv+Ryk/wCuEf8AKuKoqZ1OZWsdOFwH1efPzX+X/BCvp7Sf+QXZ/wDXBP8A0EV8w19PaT/yC7P/AK4J/wCgiqo9TDNvhh8y3RRXz38SP+R21T/fX/0Ba0nLlVzzsJhvrE3G9j6Eor5bguJ7dg0E0kTA5BRipz+Few/CjxXd6wtxpmozGa4gQSRyt95kzggnvgkc+9TGqpOxviMulRhzp3SPQ68O+KfhiPRNVS+tIwlleEnYowI5B1A9j1H4+le41yXxSslvPBl42AXtykye2CAf0JqqkbxMsDWdKsuz0PA6KKK5D6YKKKKACiiigAooooAKKKKACiiigAooooAKKKKAPo/wV/yKOkf9esf8q2qxfBX/ACKOkf8AXrH/ACrartjsfI1f4kvVnhfxe/5HKT/rhH/KuKrtfi9/yOUn/XCP+VcVXLP4mfT4T+DD0R7/APC7/kRNM/7a/wDo166quJ+EN4tz4PSAH5rWZ4yPqd3/ALNXbV0w+FHzeKVq0792eO/G1GGt6fIVOxrYqD2JDHP8x+decV9F+MfDFt4o0z7NK3lTxndBMBnY39Qe4rw3xB4Y1bw/KVv7VhFnCzp80bfQ/wBDg1hUi07ntZfiISpqnfVC+Cv+Ru0j/r6j/nX0fXzHol//AGVq9nqHleb9mlWTZu27sHOM4OK9H/4XF/1Af/Jz/wCwp05qK1M8ww1WtNOCvoeq18rV6p/wuL/qA/8Ak5/9hXldKrJStYvLsPUo83tFa9v1NDw9/wAh/TP+vqL/ANDFfTNfM3h7/kP6Z/19Rf8AoYr6Zq6OzObNviiFfMOrf8hW9/67v/6Ea+nq+YdW/wCQre/9d3/9CNFboPKfin8ipRRRXOe0FFFFABX09pP/ACC7P/rgn/oIr5hr6e0n/kF2f/XBP/QRW9HqeRm3ww+Zbr57+JH/ACO2qf76/wDoC19CV89/Ej/kdtU/31/9AWqrbGGVfxX6fqjmq7r4N/8AI3P/ANer/wA1rha7z4NIzeLJWAyFtHJPp8y1jD4ketjP4EvQ9trn/H3/ACJurf8AXA/zFdBXP+Pv+RN1b/rgf5iuqWzPmqH8SPqj52oooriPrQooooAKKKKACiiigAooooAKKKKACiiigAooooA+j/BX/Io6R/16x/yrarF8Ff8AIo6R/wBesf8AKtqu2Ox8jV/iS9WeF/F7/kcpP+uEf8q4qu1+L3/I5Sf9cI/5VxVcs/iZ9PhP4MPRHYfDPxMnh/WWiun22N4AkjHojD7rfTkg/X2r3hWDKGUgqRkEHgivleu18G/EK90CNLO7Q3mnrwq5w8Q/2T3Hsf0q6dS2jOLHYF1X7Snue6U2REkRkkVXRhgqwyCKydD8T6PryD7BexvJjJhb5ZB/wE8/iOK2K3TueHKMoO0lZnGa98NtC1XdJbRnT7g/xQD5M+6dPyxXlvijwVq/hwmSeMT2ecC4i5X/AIEOq/jx719C02SNJY2jkRXRhhlYZBHoRUSppnZQx9Wlo3dHyxRXb/Evwevh+7S+sVP9nXLY2/8APJ+u36Ht9DXEVztNOzPoKVWNWCnHY0PD3/If0z/r6i/9DFfTNfM3h7/kP6Z/19Rf+hivpmtqOzPIzb4ohWDJ4N8OSyNI+kWzO5LMSDyTW9RWrSZ5UZyj8Lsc/wD8IV4a/wCgNa/kf8aP+EK8Nf8AQGtfyP8AjXQUUcq7F+3qfzP7zgfHXhXQrDwnqN1aaZbwzxopR1ByPmArxSvoT4kf8iTqn+4v/oa1891z1VZnuZZOUqTcnfUK+ntJ/wCQXZ/9cE/9BFfMNfT2k/8AILs/+uCf+giqo9THNvhh8y3XjHjjwf4g1LxVqF5Z6bJLbyupRw6jPygdz7V7PRWsoqSszzMPiJYeTlFHz7H8P/FLuFGkuM92lQAf+PV6n8PPBx8MWs0t1Ikl/cYDlPuoo6KD39z9PTnr6KmNNRdzWvj6taPI9EFcV8W9RWz8IyW2R5l5IsajvgHcT+mPxrsLm4htLeS4uJFihjUs7scBQO9eA+PvEx8Ta0ZYtwsoAY7dT3Hdj7n+QFFSVkPAUHUqqXRHM0UUVyn0gUUUUAFFFFABRRRQAUUUUAFFFFABRRRQAUUUUAfR/gr/AJFHSP8Ar1j/AJVtVi+Cv+RR0j/r1j/lW1XbHY+Rq/xJerPC/i9/yOUn/XCP+VcVXa/F7/kcpP8ArhH/ACriq5Z/Ez6fCfwYeiCivf8A4Xf8iJpn/bX/ANGvXVVapXV7nBUzTkm48mztv/wD5XVmRgysVYHIIOCK67w/8Rdd0grHLN9vth1juDlgPZ+v55HtWt8bP+Q/Y/8AXr/7O1edVDvB2R3Q5MTSUpx3Po3wr4p0/wAT2hltGKTR482B/vJ/iPetyvnr4d3s1l4x01omIE0ghcf3lbjB/Q/hX0LXRTlzI8HG4ZUKlo7MxvGOmrq3hnUbRlyxhZ4/Z15X9RXzfX1QwDKVIyCMEV8r1nWWx35TJuMo+hoeHv8AkP6Z/wBfUX/oYr6Zr5m8Pf8AIf0z/r6i/wDQxX0zTo7Mzzb4ohXzzqfivxBHqV2iazeqizOABMcAZNfQ1fMOrf8AIVvf+u7/APoRorO1hZVCMnLmV9i//wAJd4i/6DV9/wB/jR/wl3iL/oNX3/f41i0VhzM9j2VP+Vfcat34k1u9t3trrVbuaCQYZHlJDfUVlUUUXuXGKjolYK+ntJ/5Bdn/ANcE/wDQRXzDX09pP/ILs/8Argn/AKCK2o9Tyc2+GHzLdYWoeMPD+nXklnealHFcRHDoUY44z2HvW7Xz38SP+R21T/fX/wBAWtJycVdHBgsPHETcZPoeuv8AEDwqi5Orpj2ikP8AJax9T+K+iW6EWUNzeSdvl8tPxJ5/SvFaKxdWR6scrop63Z0XinxlqviVtlzIIrQHK28XC/U+p+tc7RRWbbe53whGC5YqyCiiikUFFFFABRRRQAUUUUAFFFFABRRRQAUUUUAFFFFAH0f4K/5FHSP+vWP+VbVYvgr/AJFHSP8Ar1j/AJVtV2x2Pkav8SXqzwv4vf8AI5Sf9cI/5VxVdr8Xv+Ryk/64R/yriq5Z/Ez6fCfwYeiPfvhaQfAum4PTzc/9/Xrq686+C+qJPo11pjN+9tpfMUf7Df4EH8xXotdMHeKPnMXFxryT7nj3xuicazp0xHyNblQfcMSf/QhXm9fRni/wza+KNNFrO5imjO6GYDJQ/TuD3FeYy/CfX1lKx3Fg6Z4bzGH5jbWNSDvdHrYLGUlSUJOzRz/gOFp/GOkogyRcB/wX5j+gr6Lri/AngOLw1K17dTrc37LsBUYSMHrjPUn14rtK0pxcVqefmFeNap7myEZgilmOABkmvlevozxxqa6T4W1C5Jw7RGKP3duB+Wc/hXznUVnqkduUxajKXc0PD3/If0z/AK+ov/QxX0zXzN4e/wCQ/pn/AF9Rf+hivpmnR2Znm3xRCvmHVv8AkK3v/Xd//QjX09XmF38I/tN1NP8A25t812fb9kzjJzj79OrFytYyy7EU6Llzu1zyWivVP+FO/wDUe/8AJP8A+zo/4U7/ANR7/wAk/wD7OsvZy7Hqf2hh/wCb8H/keV0V6p/wp3/qPf8Akn/9nXC+L9A/4RvWW077T9p2or+Z5ezr2xk0nBrVmlLF0qsuWDu/mYtfT2k/8guz/wCuCf8AoIr5hr6e0n/kF2f/AFwT/wBBFaUepwZt8MPmW6+e/iR/yO2qf76/+gLX0JXz38SP+R21T/fX/wBAWqrbGGVfxX6fqjmqKKK5j3gooooAKKKKACiiigAooooAKKKKACiiigAooooAKKKKACiiigD6P8Ff8ijpH/XrH/KtqvGdG+KM2l6VaWC6THILaJYw5mI3YGM4xVz/AIXDcf8AQFi/8CD/APE11KpGx87UwFeU21Hr3Ri/F7/kcpP+uEf8q4qtnxZrzeJNXbUXtxblkVNgbd098CsaueTu2z3cPBwpRjLdI1fDGuXHh7WIdQtxu2/LJHnAdD1H+e4FfQuiaxZa5p8d7Yyh4nHI/iQ9ww7GvmWtDRta1HRLn7Rp108DnhgOVYehB4NVCfKc2MwSxHvLSR9M0V5RpXxedUVNT0wOw6yW74z/AMBP+Na4+LegY5s9Tz/1zj/+LrdVI9zxpYGvF25T0CmTTRwQvNNIkcSAszucBQO5Nea6h8XrRVIsNLmkbs07hAPwGc/nXA+JPF+seIjtvbjbbg5FvENsY+o7/jmlKqlsa0ctrTfvaI1PiP4u/wCEj1Bbe0Y/2bbE+XnjzG7uR+g/+vXG0UVzNtu7PfpU40oqEdkaHh7/AJD+mf8AX1F/6GK+ma+XbC5Nlf210F3mCVZAucZwQcfpXpH/AAuG4/6AsX/gQf8A4mtaclHc87MMNUrSi4K9j1qivJf+Fw3H/QFi/wDAg/8AxNH/AAuG4/6AsX/gQf8A4mtPaxPO/s7Efy/ij1qivJf+Fw3H/QFi/wDAg/8AxNH/AAuG4/6AsX/gQf8A4mj2sQ/s7Efy/ij1qvC/i9/yOUn/AFwj/lW1/wALhuP+gLF/4EH/AOJrifFmvN4k1dtRe3FuWRU2Bt3T3wKipNNWR24DCVaNXmmtLGNX09pP/ILs/wDrgn/oIr5hr0q1+Lc9vawwDR42EaKmfPPOBj+7U05KN7m+YYepWUeRXsev189/Ej/kdtU/31/9AWuq/wCFw3H/AEBYv/Ag/wDxNcD4i1Vtb1m61JoRCZ2BKBt2MADr+FOpNSWhll+Fq0ajlNWVjOooorE9YKKKKACiiigAooooAKKKKACiiigAooooAKKKKACiiigAooooAKKKKACiiigAooooAKKKKACiiigAooooAKKKKACiiigAooooAKKKKACiiigAooooAKKKKACiiigAooooAKKKKACiiigAooooAKKKKACiiigAooooAKKKKACiiigAooooAKKKKACiiigAooooAKKKKACiiigAooooAKKKKACiiigAooooAKKKKACiiigAooooAKKKKACiiigAooooAKKKKACiiigAooooAKKKKACiiigAooooAKKKKACiiigAooooAKKKKACiiigAooooAKKKKACiiigAooooAKKKKACiiigAooooAKKKKACiiigAooooAKKKKACiiigAooooAKKKKACiiigAooooAKKKKACiiigAooooAKKKKACiiigAooooAKKKKACiiigAooooAKKKKACiiigAooooAKKKKACiiigAooooAKKKKACiiigAooooAKKKKACiiigAooooAKKKKACiiigAooooAKKKKACiiigAooooAKKKKACiiigAooooAKKKKACiiigAooooAKKKKACiiigAooooAKKKKACiiigAooooAKKKKACiiigAooooAKKKKACiiigAooooAKKKKACiiigAooooAKKKKACiiigAooooAKKKKACiiigAooooAKKKKACiiigAooooAKKKKACiiigAooooAKKKKACiiigAooooAKKKKACiiigAooooAKKKKACiiigAooooAKKKKACiiigAooooAKKKKACiiigAooooAKKKKACiiigAooooAKKKKACiiigAooooAKKKKACiiigAooooAKKKKACiiigAooooAKKKKACiiigAooooAKKKKACiiigAooooAKKKKACiiigAooooAKKKKACiiigAooooAKKKKACiiigAooooAKKKKACiiigAooooAKKKKAP/2Q==;imageBorder=default;" vertex="1" parent="1">
          <mxGeometry x="240" y="40" width="40" height="40" as="geometry" />
        </mxCell>
      </root>
    </mxGraphModel>
  </diagram>
</mxfile>
